<?xml version="1.0" encoding="utf-8"?>
<!-- Generator: Adobe Illustrator 28.1.0, SVG Export Plug-In . SVG Version: 6.00 Build 0)  -->
<svg version="1.1" id="图层_1" xmlns="http://www.w3.org/2000/svg" xmlns:xlink="http://www.w3.org/1999/xlink" x="0px" y="0px"
	 viewBox="0 0 128 128" style="enable-background:new 0 0 128 128;" xml:space="preserve">
<style type="text/css">
	.st0{fill:none;}
	.st1{fill:#595E58;}
	.st2{font-family:'Futura-Medium';}
	.st3{font-size:48px;}
	.st4{fill:#BF0000;}
	.st5{font-size:40px;}
	.st6{fill:#F37726;}
	.st7{fill:#606060;}
</style>
<g id="_x37_c242O.tif">
	
		<image style="overflow:visible;" width="728" height="948" id="Layer_0_00000041984258748385243190000016005032965478879143_" xlink:href="C1B9AB4E9C6AD5CB.png"  transform="matrix(0.5 0 0 0.5 192.1432 -15.0798)">
	</image>
</g>
<path class="st0" d="M14.4,0h98c8.3,0,15,6.7,15,15v98c0,8.3-6.7,15-15,15h-98c-8.3,0-15-6.7-15-15V15C-0.6,6.7,6.1,0,14.4,0z"/>
<text transform="matrix(1 0 0 1 1.9104 42.2695)" class="st1 st2 st3">AI</text>
<text transform="matrix(1 0 0 1 0.9546 91.3611)" class="st4 st2 st5">System</text>
<path class="st6" d="M4,92.7l7.3-2.2c1.4,4,4.1,6.9,7.9,8.7c3.7,1.8,8.3,2.6,13.8,2.6h12.8c4.4,0,8.3,0.8,11.7,2.5
	c3.3,1.7,5.9,4.3,7.7,7.8c1.7-3.5,4.2-6.1,7.6-7.8c3.3-1.7,7.2-2.5,11.8-2.5h12.9c5.4,0,10.1-0.9,13.9-2.6c3.8-1.8,6.4-4.7,7.9-8.7
	l7.3,2.2c-2.3,7.3-5.9,12.4-10.9,15.5c-5,3.1-11,4.7-18.1,4.7h-13c-4.7,0-8.3,1-10.9,2.9c-2.6,1.9-3.8,4.9-3.8,8.9h-9.2
	c0-4-1.3-7-3.9-8.9s-6.2-2.9-10.9-2.9H33c-7.1,0-13.1-1.6-18.1-4.7C9.9,105.1,6.2,99.9,4,92.7z"/>
<text transform="matrix(1 0 0 1 38.6577 67.0004)" class="st7 st2 st5">Infra</text>
</svg>
